<svg width="35" height="29" viewBox="0 0 35 29" fill="none" xmlns="http://www.w3.org/2000/svg">
<path d="M23.1388 0.00623666V0H24.7626L25.3559 0.118497C25.7514 0.195426 26.1105 0.296241 26.4332 0.420975C26.7559 0.545708 27.0682 0.691241 27.37 0.857541C27.6719 1.02384 27.9456 1.19329 28.1913 1.36583C28.4349 1.53631 28.6534 1.71717 28.847 1.90842C29.0385 2.10176 29.3373 2.15165 29.7432 2.0581C30.1492 1.96455 30.5863 1.83461 31.0547 1.66831C31.5231 1.50201 31.9863 1.31491 32.4443 1.10701C32.9023 0.899108 33.1813 0.767109 33.2812 0.71098C33.379 0.652791 33.4311 0.621608 33.4373 0.61743L33.4435 0.608075L33.4748 0.592483L33.506 0.576891L33.5372 0.5613L33.5685 0.545708L33.5747 0.536353L33.5841 0.530116L33.5935 0.52388L33.5997 0.514525L33.6309 0.50517L33.6621 0.498933L33.6559 0.545708L33.6465 0.592483L33.6309 0.639258L33.6153 0.686033L33.5997 0.717216L33.5841 0.7484L33.5685 0.795174C33.5581 0.826358 33.5477 0.867925 33.5372 0.919908C33.5268 0.97189 33.4279 1.17976 33.2406 1.54357C33.0532 1.90739 32.819 2.27638 32.538 2.65058C32.2569 3.02478 32.0051 3.30749 31.7823 3.49877C31.5575 3.6921 31.4086 3.82722 31.3358 3.90415C31.2629 3.98314 31.1744 4.05589 31.0703 4.12243L30.9142 4.22534L30.883 4.24093L30.8517 4.25652L30.8455 4.26588L30.8361 4.27211L30.8268 4.27835L30.8205 4.28771L30.7893 4.3033L30.7581 4.31889L30.7519 4.32824L30.7425 4.33448L30.7331 4.34072L30.7268 4.35007L30.7206 4.35943L30.7112 4.36566L30.7019 4.3719L30.6956 4.38126H30.8517L31.7261 4.19416C32.309 4.06942 32.8659 3.91871 33.3967 3.742L34.2398 3.46135L34.3335 3.43016L34.3803 3.41457L34.4116 3.39898L34.4428 3.38339L34.474 3.3678L34.5052 3.35221L34.5677 3.34285L34.6302 3.33661V3.39898L34.6145 3.40522L34.5989 3.41457L34.5927 3.42393L34.5833 3.43016L34.5739 3.4364L34.5677 3.44576L34.5615 3.45511L34.5521 3.46135L34.5427 3.46758L34.5365 3.47694L34.5303 3.48629L34.5209 3.49253L34.5052 3.52371L34.4896 3.5549L34.4803 3.56113C34.4761 3.56737 34.3439 3.74406 34.0837 4.09125C33.8235 4.4405 33.683 4.61719 33.6621 4.62137C33.6413 4.6276 33.6122 4.65879 33.5747 4.71492C33.5393 4.7731 33.3186 5.00492 32.9127 5.4103C32.5068 5.81569 32.1092 6.17635 31.7199 6.49237C31.3285 6.81044 31.1307 7.20126 31.1266 7.66486C31.1203 8.12637 31.0964 8.64819 31.0547 9.23026C31.0131 9.81236 30.935 10.4412 30.8205 11.1169C30.706 11.7925 30.5291 12.5565 30.2897 13.4088C30.0503 14.2612 29.7588 15.0927 29.4153 15.9035C29.0718 16.7143 28.7127 17.4419 28.338 18.0863C27.9633 18.7308 27.6198 19.2765 27.3075 19.7234C26.9953 20.1704 26.6778 20.5914 26.3551 20.9864C26.0325 21.3814 25.6245 21.8263 25.1311 22.321C24.6356 22.8137 24.365 23.084 24.3192 23.1318C24.2713 23.1775 24.0673 23.348 23.7071 23.6432C23.3491 23.9405 22.9639 24.2377 22.5518 24.535C22.1417 24.8302 21.7648 25.0766 21.4214 25.2741C21.0779 25.4716 20.6636 25.6971 20.1785 25.9508C19.6956 26.2065 19.173 26.4434 18.611 26.6617C18.0489 26.88 17.4556 27.0827 16.8311 27.2698C16.2065 27.4569 15.6028 27.6024 15.0199 27.7064C14.4371 27.8103 13.7761 27.8987 13.037 27.9714L11.9285 28.0806V28.0962H9.89879V28.0806L9.63336 28.065C9.45644 28.0546 9.3107 28.0442 9.19619 28.0338C9.08172 28.0234 8.64973 27.9662 7.9003 27.8623C7.15086 27.7584 6.56277 27.6544 6.136 27.5505C5.70926 27.4465 5.0743 27.249 4.23119 26.958C3.38807 26.6669 2.66674 26.3728 2.06719 26.0755C1.46974 25.7803 1.09502 25.5932 0.943039 25.5142C0.793152 25.4373 0.624529 25.3416 0.437171 25.2273L0.156132 25.0558L0.149918 25.0464L0.140519 25.0402L0.131151 25.034L0.124906 25.0246L0.0936794 25.009L0.0624529 24.9934L0.0562389 24.9841L0.0468397 24.9778L0.0374718 24.9716L0.0312265 24.9622L0.0250124 24.9529L0.0156132 24.9467H0V24.8843L0.0312265 24.8905L0.0624529 24.8999L0.202972 24.9155C0.296651 24.9259 0.551678 24.9414 0.96802 24.9622C1.38439 24.983 1.82675 24.983 2.29515 24.9622C2.76354 24.9414 3.24237 24.8947 3.73156 24.8219C4.22079 24.7492 4.79848 24.6244 5.46463 24.4477C6.13082 24.271 6.74286 24.061 7.30078 23.8178C7.85661 23.5725 8.25212 23.3896 8.48738 23.269C8.72052 23.1505 9.0765 22.9301 9.5553 22.6079L10.2735 22.1246L10.2798 22.1152L10.2891 22.109L10.2985 22.1027L10.3047 22.0934L10.311 22.084L10.3203 22.0778L10.3297 22.0715L10.336 22.0622L10.3672 22.0528L10.3984 22.0466L10.4047 22.0154L10.414 21.9842L10.4234 21.978L10.4296 21.9686L10.1798 21.9531C10.0133 21.9427 9.85195 21.9323 9.69582 21.9219C9.53969 21.9115 9.29509 21.8647 8.962 21.7815C8.62893 21.6984 8.26983 21.5736 7.88468 21.4073C7.49957 21.241 7.12485 21.0435 6.76053 20.8149C6.39624 20.5862 6.13288 20.3959 5.9705 20.2442C5.81021 20.0945 5.60203 19.8825 5.34597 19.6081C5.09201 19.3316 4.87133 19.0478 4.68397 18.7568C4.49661 18.4657 4.31759 18.1299 4.14691 17.7495L3.88769 17.182L3.87208 17.1352L3.85647 17.0885L3.8471 17.0573L3.84086 17.0261L3.88769 17.0323L3.93453 17.0417L4.27803 17.0885C4.50704 17.1196 4.86615 17.13 5.35534 17.1196C5.84456 17.1093 6.18284 17.0885 6.3702 17.0573C6.55756 17.0261 6.67207 17.0053 6.71369 16.9949L6.77614 16.9793L6.85421 16.9637L6.93228 16.9481L6.93852 16.9388L6.94789 16.9325L6.95729 16.9263L6.9635 16.9169L6.90105 16.9014L6.8386 16.8858L6.77614 16.8702L6.71369 16.8546L6.65124 16.839C6.60961 16.8286 6.53676 16.8078 6.43265 16.7766C6.32857 16.7454 6.04754 16.6311 5.58954 16.4336C5.13157 16.2361 4.76725 16.0438 4.49661 15.8567C4.2253 15.6691 3.96661 15.4639 3.72219 15.2424C3.47863 15.0179 3.21114 14.7289 2.91967 14.3755C2.62824 14.0221 2.36803 13.6115 2.13901 13.1438C1.91003 12.676 1.73828 12.2291 1.62378 11.8029C1.50973 11.3792 1.43449 10.9461 1.39898 10.5088L1.34274 9.85393L1.37396 9.86016L1.40519 9.86952L1.43642 9.88511L1.46764 9.9007L1.49887 9.91629L1.5301 9.93189L2.01411 10.1502C2.3368 10.2957 2.73753 10.4204 3.21633 10.5244C3.69515 10.6283 3.98137 10.6855 4.07505 10.6959L4.21557 10.7115H4.49661L4.4904 10.7021L4.481 10.6959L4.47163 10.6896L4.46538 10.6803L4.45917 10.6709L4.44977 10.6647L4.4404 10.6585L4.43416 10.6491L4.40293 10.6335L4.37171 10.6179L4.36549 10.6086L4.35609 10.6023L4.34672 10.5961L4.34048 10.5867L4.30925 10.5711L4.27803 10.5556L4.27181 10.5462C4.26557 10.542 4.17604 10.4755 4.00323 10.3466C3.83252 10.2157 3.6535 10.0462 3.46614 9.83834C3.27878 9.63044 3.09142 9.41215 2.90406 9.18349C2.71636 8.95429 2.54917 8.70908 2.40444 8.45068C2.25874 8.19083 2.10466 7.86025 1.94229 7.45905C1.782 7.0599 1.66022 6.65764 1.57694 6.25225C1.49369 5.84687 1.44685 5.4467 1.43642 5.0517C1.42602 4.6567 1.43642 4.31889 1.46764 4.03824C1.49887 3.75759 1.56132 3.44055 1.655 3.08715C1.74868 2.73375 1.88402 2.35955 2.06095 1.96455L2.32637 1.37207L2.34198 1.32529L2.3576 1.27852L2.367 1.27228L2.37321 1.26292L2.37946 1.25357L2.38882 1.24733L2.39822 1.25357L2.40444 1.26292L2.41068 1.27228L2.42005 1.27852L2.42945 1.28475L2.43566 1.29411L2.44191 1.30346L2.45128 1.3097L2.46689 1.34088L2.4825 1.37207L2.4919 1.3783L2.49812 1.38766L2.91967 1.85541C3.20071 2.16724 3.53381 2.51546 3.91892 2.90005C4.30407 3.28463 4.51744 3.48421 4.55906 3.49877C4.60072 3.51539 4.65274 3.56319 4.7152 3.64221C4.77765 3.71914 4.98584 3.90312 5.33973 4.19416C5.69365 4.48519 6.15683 4.82303 6.7293 5.20761C7.30181 5.5922 7.93674 5.9716 8.63412 6.3458C9.33153 6.72 10.081 7.05781 10.8824 7.35926C11.6839 7.66071 12.246 7.8582 12.5687 7.95174C12.8913 8.04529 13.443 8.16482 14.2237 8.31035C15.0043 8.45589 15.5924 8.54944 15.988 8.591C16.3835 8.63257 16.6541 8.65649 16.7998 8.66272L17.0184 8.66896L17.0122 8.62219L17.0028 8.57541L16.9404 8.18562C16.8987 7.92577 16.8779 7.56195 16.8779 7.0942C16.8779 6.62645 16.9143 6.1951 16.9872 5.8001C17.0601 5.4051 17.1694 5.00492 17.3151 4.59954C17.4608 4.19416 17.6034 3.86879 17.7429 3.6235C17.8845 3.38027 18.0697 3.10274 18.2987 2.79091C18.5277 2.47907 18.8244 2.15686 19.1887 1.82422C19.553 1.49159 19.9693 1.19535 20.4377 0.935499C20.9061 0.675649 21.3381 0.478134 21.7336 0.343016C22.1292 0.207899 22.4623 0.119526 22.7329 0.0779583C23.0035 0.0363909 23.1388 0.0124733 23.1388 0.00623666V0.00623666Z" fill="white"/>
</svg>
